<?xml version="1.0" encoding="UTF-8" standalone="no" ?>
<!DOCTYPE svg PUBLIC "-//W3C//DTD SVG 1.1//EN" "http://www.w3.org/Graphics/SVG/1.1/DTD/svg11.dtd">
<svg xmlns="http://www.w3.org/2000/svg" xmlns:xlink="http://www.w3.org/1999/xlink" version="1.1" width="1024" height="512" viewBox="0 0 1024 512" xml:space="preserve">
<desc>Created with Fabric.js 4.2.0</desc>
<defs>
</defs>
<g transform="matrix(0 0 0 0 0 0)" id="a9f0412f-e7af-4f6e-a9f3-323eea53caa7"  >
</g>
<g transform="matrix(1 0 0 1 512 256)" id="02653f9b-78de-4cfc-be96-b96c734325c4"  >
<rect style="stroke: none; stroke-width: 1; stroke-dasharray: none; stroke-linecap: butt; stroke-dashoffset: 0; stroke-linejoin: miter; stroke-miterlimit: 4; fill: rgb(255,255,255); fill-rule: nonzero; opacity: 1; visibility: hidden;" vector-effect="non-scaling-stroke"  x="-512" y="-256" rx="0" ry="0" width="1024" height="512" />
</g>
<g transform="matrix(2.11 0 0 2.11 512 256)"  >
<g style="opacity: 1;" vector-effect="non-scaling-stroke"   >
		<g transform="matrix(1 0 0 1 -73.04 -1.89)"  >
<path style="stroke: none; stroke-width: 1; stroke-dasharray: none; stroke-linecap: butt; stroke-dashoffset: 0; stroke-linejoin: miter; stroke-miterlimit: 4; fill: rgb(10,102,194); fill-rule: evenodd; opacity: 1;" vector-effect="non-scaling-stroke"  transform=" translate(-182.96, -254.61)" d="M 43.391 217.477 L 26 217.477 L 26 294.592 L 74.053 294.592 L 74.053 279.947 L 43.391 279.947 L 43.391 217.477 z M 89.037 214.39 C 83.43100000000001 214.39 79.769 218.165 79.769 223.08499999999998 C 79.769 227.88899999999998 83.316 231.77899999999997 88.808 231.77899999999997 C 94.64200000000001 231.77899999999997 98.18900000000001 227.88799999999998 98.18900000000001 223.08499999999998 C 98.076 218.165 94.642 214.39 89.037 214.39 z M 80.227 294.592 L 97.619 294.592 L 97.619 238.64499999999998 L 80.227 238.64499999999998 L 80.227 294.592 z M 141.09 237.386 C 131.709 237.386 126.10300000000001 242.763 123.815 246.42499999999998 L 123.471 246.42499999999998 L 122.669 238.64499999999998 L 107.567 238.64499999999998 C 107.79599999999999 243.67999999999998 108.02399999999999 249.51399999999998 108.02399999999999 256.493 L 108.02399999999999 294.593 L 125.41599999999998 294.593 L 125.41599999999998 262.329 C 125.41599999999998 260.726 125.52999999999999 259.125 125.98699999999998 257.98 C 127.24599999999998 254.77800000000002 130.10699999999997 251.45900000000003 134.91299999999998 251.45900000000003 C 141.20499999999998 251.45900000000003 143.72199999999998 256.379 143.72199999999998 263.586 L 143.72199999999998 294.592 L 161.11399999999998 294.592 L 161.11399999999998 261.527 C 161.113 245.052 152.532 237.386 141.09 237.386 z M 225.408 238.645 L 204.47099999999998 238.645 L 193.14399999999998 255.46300000000002 C 191.771 257.523 190.39899999999997 259.81100000000004 189.14 262.213 L 188.91099999999997 262.213 L 188.91099999999997 213.35900000000004 L 171.52 213.35900000000004 L 171.52 294.591 L 188.912 294.591 L 188.912 277.08500000000004 L 193.25900000000001 271.59400000000005 L 206.875 294.59100000000007 L 228.27 294.59100000000007 L 205.388 261.2970000000001 L 225.408 238.645 z M 253.437 237.386 C 233.989 237.386 225.178 253.061 225.178 267.247 C 225.178 284.75300000000004 236.048 295.735 255.041 295.735 C 262.592 295.735 269.57 294.591 275.291 292.188 L 273.005 280.404 C 268.312 282.006 263.507 282.807 257.558 282.807 C 249.434 282.807 242.226 279.373 241.769 272.166 L 277.808 272.166 C 278.037 270.907 278.38 268.275 278.38 265.302 C 278.379 251.459 271.516 237.386 253.437 237.386 z M 241.653 260.268 C 242.10999999999999 255.69299999999998 245.08599999999998 248.94099999999997 252.408 248.94099999999997 C 260.417 248.94099999999997 262.246 256.03499999999997 262.246 260.268 L 241.653 260.268 z M 339.472 277.888 L 339.472 213.35999999999996 L 322.08 213.35999999999996 L 322.08 243.56499999999994 L 321.851 243.56499999999994 C 319.333 239.78899999999993 314.071 237.27199999999993 307.092 237.27199999999993 C 293.70599999999996 237.27199999999993 281.92199999999997 248.25499999999994 282.036 267.1329999999999 C 282.036 284.5249999999999 292.677 295.8519999999999 305.948 295.8519999999999 C 313.155 295.8519999999999 320.02 292.64699999999993 323.45399999999995 286.4679999999999 L 323.79599999999994 286.4679999999999 L 324.4819999999999 294.5919999999999 L 339.9289999999999 294.5919999999999 C 339.7 290.816 339.472 284.18 339.472 277.888 z M 322.08 269.651 C 322.08 271.023 321.967 272.396 321.73699999999997 273.65500000000003 C 320.707 278.574 316.58899999999994 282.00600000000003 311.554 282.00600000000003 C 304.347 282.00600000000003 299.654 276.05600000000004 299.654 266.562 C 299.654 257.75100000000003 303.659 250.65900000000002 311.67 250.65900000000002 C 317.048 250.65900000000002 320.822 254.55 321.85200000000003 259.125 C 322.081 260.154 322.081 261.412 322.081 262.329 L 322.081 269.651 z" stroke-linecap="round" />
</g>
		<g transform="matrix(1 0 0 1 165.37 0)"  >
<path style="stroke: none; stroke-width: 1; stroke-dasharray: none; stroke-linecap: butt; stroke-dashoffset: 0; stroke-linejoin: miter; stroke-miterlimit: 4; fill: rgb(10,102,194); fill-rule: evenodd; opacity: 1;" vector-effect="non-scaling-stroke"  transform=" translate(-421.37, -256.5)" d="M 472.968 191.104 L 369.771 191.104 C 362.572 191.104 356.73900000000003 196.95800000000003 356.73900000000003 204.179 L 356.73900000000003 308.82 C 356.73900000000003 316.042 362.57200000000006 321.895 369.771 321.895 L 472.967 321.895 C 480.166 321.895 485.99899999999997 316.041 485.99899999999997 308.82 L 485.99899999999997 204.18 C 486 196.959 480.167 191.104 472.968 191.104 z M 398.216 294.592 L 380.825 294.592 L 380.825 238.64499999999998 L 398.216 238.64499999999998 L 398.216 294.592 z M 389.406 231.779 C 383.915 231.779 380.368 227.888 380.368 223.085 C 380.368 218.16500000000002 384.028 214.39000000000001 389.635 214.39000000000001 C 395.24 214.39000000000001 398.674 218.16500000000002 398.787 223.085 C 398.787 227.889 395.24 231.779 389.406 231.779 z M 461.711 294.592 L 444.321 294.592 L 444.321 263.586 C 444.321 256.379 441.802 251.459 435.509 251.459 C 430.704 251.459 427.845 254.77700000000002 426.586 257.98 C 426.129 259.125 426.01300000000003 260.726 426.01300000000003 262.329 L 426.01300000000003 294.593 L 408.62300000000005 294.593 L 408.62300000000005 256.493 C 408.62300000000005 249.51399999999998 408.39400000000006 243.68 408.16600000000005 238.64499999999998 L 423.26800000000003 238.64499999999998 L 424.07000000000005 246.42499999999998 L 424.41300000000007 246.42499999999998 C 426.7010000000001 242.76299999999998 432.30800000000005 237.386 441.6890000000001 237.386 C 453.13000000000005 237.386 461.7100000000001 245.052 461.7100000000001 261.527 L 461.7100000000001 294.592 z" stroke-linecap="round" />
</g>
</g>
</g>
<g transform="matrix(0.57 0 0 2.62 45.26 249.35)" id="60dc6e09-223c-42c7-af4a-7bcef5b07e2b"  >
<rect style="stroke: rgb(0,0,0); stroke-width: 0; stroke-dasharray: none; stroke-linecap: butt; stroke-dashoffset: 0; stroke-linejoin: miter; stroke-miterlimit: 4; fill: rgb(10,102,194); fill-rule: nonzero; opacity: 1;" vector-effect="non-scaling-stroke"  x="-33.0835" y="-33.0835" rx="0" ry="0" width="66.167" height="66.167" />
</g>
</svg>