<?xml version="1.0" ?><!DOCTYPE svg  PUBLIC '-//W3C//DTD SVG 1.1//EN'  'http://www.w3.org/Graphics/SVG/1.1/DTD/svg11.dtd'><svg height="512px" style="enable-background:new 0 0 512 512;" version="1.1" viewBox="0 0 512 512" width="512px" xml:space="preserve" xmlns="http://www.w3.org/2000/svg" xmlns:xlink="http://www.w3.org/1999/xlink"><g id="形状_1_3_" style="enable-background:new    ;"><g id="形状_1"><g><path d="M43.391,217.477H26v77.115h48.053v-14.645H43.391V217.477z M89.037,214.39     c-5.606,0-9.268,3.775-9.268,8.695c0,4.804,3.547,8.694,9.039,8.694c5.834,0,9.381-3.891,9.381-8.694     C98.076,218.165,94.642,214.39,89.037,214.39z M80.227,294.592h17.392v-55.947H80.227V294.592z M141.09,237.386     c-9.381,0-14.987,5.377-17.275,9.039h-0.344l-0.802-7.78h-15.102c0.229,5.035,0.457,10.869,0.457,17.848v38.1h17.392v-32.264     c0-1.603,0.114-3.204,0.571-4.349c1.259-3.202,4.12-6.521,8.926-6.521c6.292,0,8.809,4.92,8.809,12.127v31.006h17.392v-33.065     C161.113,245.052,152.532,237.386,141.09,237.386z M225.408,238.645h-20.937l-11.327,16.818c-1.373,2.06-2.745,4.348-4.004,6.75     h-0.229v-48.854H171.52v81.232h17.392v-17.506l4.347-5.491l13.616,22.997h21.395l-22.882-33.294L225.408,238.645z      M253.437,237.386c-19.448,0-28.259,15.675-28.259,29.861c0,17.506,10.87,28.488,29.863,28.488c7.551,0,14.529-1.144,20.25-3.547     l-2.286-11.784c-4.693,1.602-9.498,2.403-15.447,2.403c-8.124,0-15.332-3.434-15.789-10.641h36.039     c0.229-1.259,0.572-3.891,0.572-6.864C278.379,251.459,271.516,237.386,253.437,237.386z M241.653,260.268     c0.457-4.575,3.433-11.327,10.755-11.327c8.009,0,9.838,7.094,9.838,11.327H241.653z M339.472,277.888v-64.528H322.08v30.205     h-0.229c-2.518-3.776-7.78-6.293-14.759-6.293c-13.386,0-25.17,10.983-25.056,29.861c0,17.392,10.641,28.719,23.912,28.719     c7.207,0,14.072-3.205,17.506-9.384h0.342l0.686,8.124h15.447C339.7,290.816,339.472,284.18,339.472,277.888z M322.08,269.651     c0,1.372-0.113,2.745-0.343,4.004c-1.03,4.919-5.148,8.351-10.183,8.351c-7.207,0-11.9-5.95-11.9-15.444     c0-8.811,4.005-15.903,12.016-15.903c5.378,0,9.152,3.891,10.182,8.466c0.229,1.029,0.229,2.287,0.229,3.204V269.651z" style="fill-rule:evenodd;clip-rule:evenodd;fill:#0A66C2"/></g></g></g><g id="形状_1_2_" style="enable-background:new    ;"><g id="形状_1_1_"><g><path d="M472.968,191.104H369.771     c-7.199,0-13.032,5.854-13.032,13.075V308.82c0,7.222,5.833,13.075,13.032,13.075h103.196c7.199,0,13.032-5.854,13.032-13.075     V204.18C486,196.959,480.167,191.104,472.968,191.104z M398.216,294.592h-17.391v-55.947h17.391V294.592z M389.406,231.779     c-5.491,0-9.038-3.891-9.038-8.694c0-4.92,3.66-8.695,9.267-8.695c5.605,0,9.039,3.775,9.152,8.695     C398.787,227.889,395.24,231.779,389.406,231.779z M461.711,294.592h-17.39v-31.006c0-7.207-2.519-12.127-8.812-12.127     c-4.805,0-7.664,3.318-8.923,6.521c-0.457,1.145-0.573,2.746-0.573,4.349v32.264h-17.39v-38.1c0-6.979-0.229-12.813-0.457-17.848     h15.102l0.802,7.78h0.343c2.288-3.662,7.895-9.039,17.276-9.039c11.441,0,20.021,7.666,20.021,24.141V294.592z" style="fill-rule:evenodd;clip-rule:evenodd;fill:#0A66C2;"/></g></g></g></svg>